<svg width="800" height="600" xmlns="http://www.w3.org/2000/svg">
 <!-- Created with Method Draw - http://github.com/duopixel/Method-Draw/ -->

 <g>
  <title>background</title>
  <rect fill="#fff" id="canvas_background" height="602" width="802" y="-1" x="-1"/>
  <g display="none" overflow="visible" y="0" x="0" height="100%" width="100%" id="canvasGrid">
   <rect fill="url(#gridpattern)" stroke-width="0" y="0" x="0" height="100%" width="100%"/>
  </g>
 </g>
 <g>
  <title>Layer 1</title>
  <style transform="matrix(39.0625,0,0,39.0625,0,0) ">.st0{fill:#000}</style>
  <g transform="rotate(91 399.99957275390625,300.00067138671875) " id="svg_17">
   <g transform="matrix(39.0625,0,0,39.0625,0,0) " id="svg_9">
    <g id="svg_10">
     <g id="svg_11">
      <g id="svg_12">
       <g id="svg_13">
        <path id="svg_15" transform="rotate(36 -316.1315307617193,957.8399658203127) " d="m-618.58051,11.57096c-0.2,0.2 -0.5,0.3 -0.9,0.3c-0.8,0 -1.5,-0.7 -1.5,-1.5c0,-10.4 1.4,-16.2 15.3,-25.1c0.7,-0.4 1.6,-0.2 2.1,0.4c0.4,0.7 0.2,1.6 -0.4,2.1c-13.4,8.6 -14,13.6 -14,22.6c0,0.5 -0.2,0.9 -0.6,1.2z" class="st0"/>
        <path id="svg_16" transform="rotate(36 -316.1315307617193,957.8399658203127) " d="m-603.28051,-3.92904c-0.2,0.2 -0.5,0.3 -0.8,0.3c-0.8,0 -1.5,-0.6 -1.5,-1.5c-0.1,-2.5 0.7,-4.7 1.3,-6.5c0.3,-0.9 0.8,-2.4 0.6,-2.6c-0.2,-0.2 -1.3,-1 -8.1,-0.5c-0.8,0.1 -1.5,-0.6 -1.6,-1.4c-0.1,-0.8 0.6,-1.5 1.4,-1.6c6.5,-0.4 9.4,0 10.7,1.7c1.2,1.6 0.5,3.5 -0.2,5.5c-0.6,1.6 -1.2,3.4 -1.1,5.4c-0.1,0.4 -0.3,0.9 -0.7,1.2z" class="st0"/>
       </g>
      </g>
     </g>
    </g>
   </g>
  </g>
 </g>
</svg>